<?xml version="1.0" standalone="no"?>
<!DOCTYPE svg PUBLIC "-//W3C//DTD SVG 20010904//EN"
 "http://www.w3.org/TR/2001/REC-SVG-20010904/DTD/svg10.dtd">
<svg version="1.0" xmlns="http://www.w3.org/2000/svg"
 width="73.000000pt" height="73.000000pt" viewBox="0 0 73.000000 73.000000"
 preserveAspectRatio="xMidYMid meet">
<metadata>
Created by potrace 1.14, written by Peter Selinger 2001-2017
</metadata>
<g transform="translate(0.000000,73.000000) scale(0.100000,-0.100000)"
fill="#000000" stroke="none">
<path d="M223 610 c-93 -20 -140 -118 -98 -200 14 -27 14 -33 0 -60 -46 -89
21 -200 123 -202 21 0 52 7 68 15 26 13 32 13 59 -1 37 -19 98 -17 135 4 57
34 81 119 52 181 -14 30 -14 36 0 66 9 20 14 51 12 77 -3 37 -11 52 -43 83
-22 20 -51 38 -63 38 -48 3 -83 -2 -103 -15 -15 -10 -26 -11 -39 -4 -32 18
-71 25 -103 18z m91 -58 c40 -36 52 -106 22 -131 -8 -7 -24 -7 -49 1 -28 9
-46 8 -74 0 -33 -10 -40 -9 -50 5 -16 21 -17 67 -2 96 29 54 107 69 153 29z
m186 -1 c62 -44 43 -150 -31 -172 -48 -15 -105 4 -92 30 10 21 10 111 0 132
-6 13 -1 19 20 27 34 13 70 7 103 -17z m-206 -172 c22 -11 23 -13 11 -43 -7
-17 -10 -44 -7 -61 12 -68 9 -78 -25 -87 -58 -15 -123 35 -123 95 0 80 72 128
144 96z m146 -41 c19 0 46 2 59 4 54 7 50 -103 -5 -139 -82 -53 -184 22 -153
114 10 31 14 34 38 27 14 -4 42 -7 61 -6z"/>
</g>
</svg>
